<svg width="29" height="31" viewBox="0 0 29 31" fill="none" xmlns="http://www.w3.org/2000/svg">
<path fill-rule="evenodd" clip-rule="evenodd" d="M9.88929 12.7152H4.825C4.08191 12.7091 3.3668 12.9984 2.83702 13.5195C2.30721 14.0405 2.00613 14.7507 2 15.4938V26.0098C2.01375 27.5566 3.27829 28.7996 4.825 28.7866H9.88929C10.6323 28.7929 11.3475 28.5036 11.8773 27.9825C12.4071 27.4614 12.7082 26.7513 12.7143 26.008V15.4938C12.7082 14.7507 12.4071 14.0405 11.8773 13.5195C11.3475 12.9984 10.6323 12.7091 9.88929 12.7152Z" stroke="#00A39B" stroke-width="3" stroke-linecap="round" stroke-linejoin="round"/>
<path fill-rule="evenodd" clip-rule="evenodd" d="M9.88929 2.00108H4.825C3.30939 1.95904 2.0457 3.15165 2 4.66715V6.47786C2.0457 7.99338 3.30939 9.18599 4.825 9.14394H9.88929C11.4048 9.18599 12.6686 7.99338 12.7143 6.47786V4.66715C12.6686 3.15165 11.4048 1.95904 9.88929 2.00108Z" stroke="#00A39B" stroke-width="3" stroke-linecap="round" stroke-linejoin="round"/>
<path fill-rule="evenodd" clip-rule="evenodd" d="M19.1102 18.0726H24.1727C24.916 18.0792 25.6316 17.7901 26.1618 17.269C26.6919 16.7478 26.9934 16.0374 26.9994 15.294V4.77965C26.9934 4.03657 26.6923 3.32636 26.1625 2.80527C25.6327 2.28418 24.9175 1.99489 24.1744 2.00107H19.1102C18.3671 1.99489 17.6519 2.28418 17.1221 2.80527C16.5923 3.32636 16.2912 4.03657 16.2852 4.77965V15.294C16.2912 16.037 16.5923 16.7472 17.1221 17.2683C17.6519 17.7894 18.3671 18.0786 19.1102 18.0726Z" stroke="#00A39B" stroke-width="3" stroke-linecap="round" stroke-linejoin="round"/>
<path fill-rule="evenodd" clip-rule="evenodd" d="M19.1102 28.7868H24.1727C25.6889 28.8298 26.9537 27.6369 26.9994 26.1207V24.31C26.9537 22.7944 25.69 21.6019 24.1744 21.6439H19.1102C17.5946 21.6019 16.3309 22.7944 16.2852 24.31V26.1189C16.3298 27.6351 17.5939 28.8287 19.1102 28.7868Z" stroke="#00A39B" stroke-width="3" stroke-linecap="round" stroke-linejoin="round"/>
</svg>
