<svg width="29" height="29" viewBox="0 0 29 29" fill="none" xmlns="http://www.w3.org/2000/svg">
<path d="M25.954 7.57444L14.1012 19.4272C12.9209 20.6075 9.41724 21.1541 8.63451 20.3714C7.85177 19.5887 8.38602 16.085 9.56633 14.9047L21.4316 3.03953C21.7242 2.7203 22.0784 2.46369 22.473 2.28515C22.8675 2.10661 23.2941 2.00983 23.7271 2.00071C24.16 1.9916 24.5903 2.0703 24.992 2.23207C25.3937 2.39385 25.7585 2.63538 26.0642 2.94201C26.37 3.24864 26.6105 3.61404 26.7712 4.01617C26.9318 4.4183 27.0095 4.84881 26.9992 5.28173C26.9888 5.71466 26.8908 6.14105 26.7113 6.53508C26.5316 6.92912 26.2741 7.2827 25.954 7.57444Z" stroke="#666666" stroke-width="3" stroke-linecap="round" stroke-linejoin="round"/>
<path d="M13.1819 4.59253H6.96972C5.65166 4.59253 4.38768 5.11611 3.45567 6.04812C2.52367 6.98013 2 8.24419 2 9.56225V21.9866C2 23.3047 2.52367 24.5687 3.45567 25.5006C4.38768 26.4327 5.65166 26.9563 6.96972 26.9563H20.6365C23.3822 26.9563 24.3637 24.7199 24.3637 21.9866V15.7744" stroke="#666666" stroke-width="3" stroke-linecap="round" stroke-linejoin="round"/>
</svg>
