<svg width="29" height="19" viewBox="0 0 29 19" fill="none" xmlns="http://www.w3.org/2000/svg">
<path fill-rule="evenodd" clip-rule="evenodd" d="M18.6429 7.17035C20.4561 6.34574 22.6685 6.67815 24.1614 8.17113L26.0081 10.0178C26.0267 10.0364 26.045 10.0547 26.0632 10.0729C26.3137 10.3227 26.53 10.5385 26.6608 10.7843C26.9491 11.3263 26.9491 11.9762 26.6608 12.5181C26.53 12.764 26.3137 12.9798 26.0632 13.2295C26.045 13.2478 26.0267 13.2661 26.0081 13.2846L25.9761 13.3167C25.7359 13.5569 25.3464 13.5569 25.1061 13.3167C24.8658 13.0764 24.8658 12.6869 25.1061 12.4466L25.1381 12.4146C25.4755 12.0772 25.5423 12.0009 25.5746 11.9402C25.6707 11.7595 25.6707 11.5429 25.5746 11.3622C25.5423 11.3016 25.4755 11.2252 25.1381 10.8878L23.2914 9.04116C22.1729 7.92262 20.5139 7.67117 19.1522 8.29037C18.843 8.43102 18.4782 8.29432 18.3376 7.98503C18.1969 7.67575 18.3336 7.311 18.6429 7.17035Z" fill="#666666"/>
<path fill-rule="evenodd" clip-rule="evenodd" d="M14.8261 7.0471C15.0347 6.77891 15.4212 6.73059 15.6894 6.93919L26.763 15.552C27.0312 15.7605 27.0795 16.1471 26.8709 16.4153C26.6623 16.6835 26.2758 16.7318 26.0076 16.5232L24.186 15.1065L24.1611 15.1314C22.2392 17.0534 19.123 17.0534 17.201 15.1314L15.8673 13.7977C15.4817 13.4121 15.1494 13.0798 14.9191 12.778C14.6722 12.4545 14.4854 12.0947 14.4854 11.6513C14.4854 11.2078 14.6722 10.848 14.9191 10.5246C15.1494 10.2227 15.4816 9.89045 15.8673 9.50484L16.3559 9.01628L14.934 7.9104C14.6658 7.70181 14.6175 7.3153 14.8261 7.0471ZM21.2085 12.7906L22.2475 13.5987C21.8316 13.9205 21.3097 14.112 20.7431 14.112C19.384 14.112 18.2823 13.0103 18.2823 11.6513C18.2823 11.3033 18.3545 10.9722 18.4848 10.6721L19.5244 11.4807C19.5167 11.5365 19.5127 11.5934 19.5127 11.6513C19.5127 12.3308 20.0635 12.8816 20.7431 12.8816C20.9078 12.8816 21.0649 12.8493 21.2085 12.7906Z" fill="#666666"/>
<path opacity="0.5" d="M26.8404 2H2" stroke="#666666" stroke-width="3" stroke-linecap="round"/>
<path opacity="0.5" d="M12.2284 16.6121H2" stroke="#666666" stroke-width="3" stroke-linecap="round"/>
<path opacity="0.5" d="M10.7672 9.30591H2" stroke="#666666" stroke-width="3" stroke-linecap="round"/>
</svg>
