<svg width="29" height="32" viewBox="0 0 29 32" fill="none" xmlns="http://www.w3.org/2000/svg">
<path d="M18.666 15.8891H6.16602M6.16602 15.8891L8.94379 18.6669M6.16602 15.8891L8.94379 13.1113" stroke="#666666" stroke-width="3" stroke-linecap="round" stroke-linejoin="round"/>
<path d="M14.5004 29.7538C12.3428 29.6888 11.0559 29.4481 10.1652 28.5574C9.09804 27.4901 8.96409 25.8542 8.94727 22.8333M20.056 29.7754C23.0768 29.7586 24.7128 29.6246 25.78 28.5574C27.0004 27.3369 27.0004 25.3728 27.0004 21.4444V18.6667V13.1111V10.3333C27.0004 6.40496 27.0004 4.44078 25.78 3.22039C24.5596 2 22.5954 2 18.6671 2H17.2782C13.3498 2 11.3856 2 10.1652 3.22039C9.09804 4.28758 8.96409 5.92357 8.94727 8.94444" stroke="#666666" stroke-width="3" stroke-linecap="round"/>
<path d="M2 12.4171V19.3615C2 22.6352 2 24.272 3.01699 25.289C4.03399 26.306 5.67081 26.306 8.94444 26.306M3.01699 6.48964C4.03399 5.47266 5.67081 5.47266 8.94444 5.47266" stroke="#666666" stroke-width="3" stroke-linecap="round"/>
</svg>
