<svg width="29" height="28" viewBox="0 0 29 28" fill="none" xmlns="http://www.w3.org/2000/svg">
<path d="M9.23736 21.7366C10.3274 21.7366 11.211 22.6203 11.211 23.7103C11.211 24.8003 10.3274 25.6839 9.23736 25.6839C8.14732 25.6839 7.26367 24.8003 7.26367 23.7103C7.26367 22.6203 8.14732 21.7366 9.23736 21.7366Z" stroke="#666666" stroke-width="3"/>
<path d="M21.0792 21.7371C22.1692 21.7371 23.0528 22.6206 23.0528 23.7107C23.0528 24.8007 22.1692 25.6844 21.0792 25.6844C19.9892 25.6844 19.1055 24.8007 19.1055 23.7107C19.1055 22.6206 19.9892 21.7371 21.0792 21.7371Z" stroke="#666666" stroke-width="3"/>
<path d="M13.8428 12.2634L15.3466 13.8424L19.1059 9.89502" stroke="#666666" stroke-width="3" stroke-linecap="round" stroke-linejoin="round"/>
<path d="M2 2L2.3437 2.12084C4.05632 2.72296 4.91263 3.02403 5.40242 3.74076C5.89221 4.45751 5.89221 5.40955 5.89221 7.31364V10.8947C5.89221 14.7653 5.97542 16.0425 7.11542 17.245C8.25543 18.4474 10.0902 18.4474 13.7599 18.4474H15.1579M20.7374 18.4474C22.7913 18.4474 23.8183 18.4474 24.5442 17.8558C25.2701 17.2642 25.4775 16.2584 25.8921 14.2467L26.5498 11.0563C27.0065 8.76802 27.2348 7.62391 26.6507 6.86458C26.0666 6.10527 24.0708 6.10527 21.8537 6.10527H13.873M5.89221 6.10527H8.57895" stroke="#666666" stroke-width="3" stroke-linecap="round"/>
</svg>
