<svg width="29" height="30" viewBox="0 0 29 30" fill="none" xmlns="http://www.w3.org/2000/svg">
<path fill-rule="evenodd" clip-rule="evenodd" d="M13.25 27.641C12.5954 27.641 12.037 27.1551 11.9304 26.4927C11.8322 25.9568 11.456 25.5189 10.95 25.3516C10.5377 25.2064 10.1345 25.0352 9.74287 24.8388C9.27683 24.5943 8.71775 24.631 8.28573 24.9341C7.76293 25.3196 7.04474 25.2599 6.5893 24.793L4.81787 22.9762C4.34113 22.4872 4.27919 21.7163 4.67145 21.1538C4.97396 20.7006 5.01753 20.1161 4.78573 19.6209C4.633 19.2769 4.49828 18.9247 4.38216 18.5659C4.21584 18.0006 3.75678 17.5771 3.19108 17.467C2.50892 17.3553 2.00531 16.7544 2.00002 16.0458V13.7729C1.99639 12.9562 2.57152 12.2577 3.35716 12.1245C3.95317 12.0082 4.45084 11.5896 4.67859 11.0128C4.74645 10.8504 4.81787 10.6892 4.89287 10.5293C5.19577 9.93121 5.15394 9.21083 4.78394 8.65385C4.32124 7.99429 4.39229 7.08808 4.95179 6.51282L6.25359 5.17766C6.89564 4.5189 7.90824 4.43365 8.64645 4.97619L8.68751 5.00549C9.23873 5.38601 9.94016 5.45493 10.5518 5.18865C11.2061 4.94709 11.6885 4.3704 11.8214 3.67033L11.8394 3.60806C11.9863 2.68126 12.7667 2.00038 13.6822 2H15.2537C16.1938 1.99956 16.9962 2.69702 17.15 3.64835L17.1786 3.77656C17.3048 4.4472 17.7621 5.00223 18.3857 5.24176C18.9868 5.50636 19.678 5.43725 20.2179 5.05861L20.3071 4.99267C21.0645 4.43286 22.1059 4.51896 22.7661 5.19597L23.9643 6.42674C24.5648 7.04608 24.6403 8.02002 24.1429 8.72894C23.7531 9.32147 23.7035 10.0829 24.0125 10.7234L24.0894 10.9066C24.3396 11.5321 24.8811 11.9853 25.5286 12.1117C26.3749 12.2533 26.9973 13.0016 27 13.881V15.9194C26.9998 16.6949 26.4529 17.3564 25.7071 17.4835C25.0938 17.6042 24.5941 18.0597 24.4053 18.6703C24.322 18.9145 24.2291 19.1588 24.1267 19.4029C23.8885 19.9396 23.9414 20.5648 24.2661 21.0513C24.6945 21.6626 24.628 22.5024 24.109 23.0348L22.4465 24.7418C21.9711 25.2293 21.2212 25.2921 20.6751 24.8901C20.219 24.5705 19.6284 24.5353 19.1394 24.7985C18.7908 24.9756 18.4331 25.1328 18.0679 25.2692C17.5571 25.45 17.1806 25.8984 17.0822 26.4432C16.978 27.1288 16.4049 27.6359 15.7286 27.641H13.25Z" stroke="#666666" stroke-width="3" stroke-linecap="round" stroke-linejoin="round"/>
<path fill-rule="evenodd" clip-rule="evenodd" d="M18.6662 14.8208C18.6662 17.1807 16.801 19.0937 14.5 19.0937C12.1991 19.0937 10.334 17.1807 10.334 14.8208C10.334 12.4609 12.1991 10.5479 14.5 10.5479C16.801 10.5479 18.6662 12.4609 18.6662 14.8208Z" stroke="#666666" stroke-width="3" stroke-linecap="round" stroke-linejoin="round"/>
</svg>
