<svg width="27" height="17" viewBox="0 0 27 17" fill="none" xmlns="http://www.w3.org/2000/svg">
<path opacity="0.5" d="M23.5189 2H2" stroke="#666666" stroke-width="3" stroke-linecap="round"/>
<path opacity="0.5" d="M10.8607 14.6582H2" stroke="#666666" stroke-width="3" stroke-linecap="round"/>
<path opacity="0.5" d="M9.59492 8.3291H2" stroke="#666666" stroke-width="3" stroke-linecap="round"/>
<path d="M20.3545 7.19771L19.6762 7.86189C19.8548 8.04429 20.0992 8.14708 20.3545 8.14708C20.6099 8.14708 20.8543 8.04429 21.0329 7.86189L20.3545 7.19771ZM19.6394 14.2842C18.8247 13.6838 17.7818 12.8314 16.9518 11.8835C16.0923 10.9019 15.6077 9.98277 15.6077 9.23391H13.709C13.709 10.7035 14.5937 12.0726 15.5232 13.1343C16.4823 14.2296 17.6481 15.1753 18.5129 15.8126L19.6394 14.2842ZM15.6077 9.23391C15.6077 7.83164 16.2337 7.09328 16.8777 6.8525C17.5324 6.60771 18.5762 6.73836 19.6762 7.86189L21.0329 6.53347C19.5697 5.03912 17.7654 4.49347 16.2128 5.07403C14.6495 5.65858 13.709 7.24721 13.709 9.23391H15.6077ZM22.1962 15.8126C23.061 15.1753 24.2268 14.2296 25.1859 13.1343C26.1154 12.0726 27.0001 10.7035 27.0001 9.23391H25.1014C25.1014 9.98277 24.6168 10.902 23.7573 11.8835C22.9273 12.8314 21.8844 13.6838 21.0697 14.2842L22.1962 15.8126ZM27.0001 9.23391C27.0001 7.24721 26.0596 5.65856 24.4963 5.07403C22.9436 4.49348 21.1393 5.03912 19.6762 6.53347L21.0329 7.86189C22.1329 6.73836 23.1767 6.60771 23.8314 6.8525C24.4754 7.09328 25.1014 7.83164 25.1014 9.23391H27.0001ZM18.5129 15.8126C19.0087 16.1781 19.5637 16.6333 20.3545 16.6333V14.7345C20.3358 14.7345 20.3143 14.7374 20.2267 14.6901C20.1024 14.6228 19.9469 14.5109 19.6394 14.2842L18.5129 15.8126ZM21.0697 14.2842C20.7621 14.5109 20.6067 14.6228 20.4824 14.6901C20.3948 14.7374 20.3733 14.7345 20.3545 14.7345V16.6333C21.1454 16.6333 21.7004 16.1781 22.1962 15.8126L21.0697 14.2842Z" fill="#666666"/>
</svg>
