<svg width="25" height="31" viewBox="0 0 25 31" fill="none" xmlns="http://www.w3.org/2000/svg">
<path fill-rule="evenodd" clip-rule="evenodd" d="M1.38889 0C0.621833 0 0 0.621833 0 1.38889V29.1667C0 29.9338 0.621833 30.5556 1.38889 30.5556C2.15594 30.5556 2.77778 29.9338 2.77778 29.1667V17.4976C3.42503 17.1754 4.44824 16.7262 5.54515 16.4521C7.51265 15.9603 9.09164 16.1418 9.95556 17.4375C11.5681 19.8561 14.6475 20.0692 17.0175 19.8331C19.5185 19.5839 21.9928 18.7649 23.2436 18.3022C24.3426 17.8958 25 16.8522 25 15.7511V6.56024C25 4.40551 22.7192 3.14756 20.9013 3.97196C19.4271 4.64053 17.4686 5.38715 15.6987 5.63375C13.8471 5.89176 12.7717 5.54264 12.2667 4.78533C10.4446 2.05226 7.32719 1.72869 5.09297 1.91488C4.23528 1.98636 3.43832 2.13633 2.77778 2.29513V1.38889C2.77778 0.621833 2.15594 0 1.38889 0ZM2.77778 5.16815V14.451C3.39004 14.201 4.10578 13.9486 4.87149 13.7572C7.07065 13.2075 10.3528 13.026 12.2667 15.8965C12.9314 16.8936 14.4632 17.296 16.7421 17.069C18.8553 16.8585 21.0308 16.1557 22.2222 15.7183V6.56024C22.2222 6.49714 22.0946 6.48088 22.0486 6.50175C20.4965 7.20561 18.2494 8.08294 16.0821 8.38494C13.9967 8.67554 11.4033 8.49792 9.95556 6.32622C8.99985 4.89283 7.25611 4.52203 5.32367 4.68306C4.33896 4.76512 3.4226 4.98092 2.77778 5.16815Z" fill="#666666"/>
</svg>
