<svg width="50" height="50" viewBox="0 0 50 50" fill="none" xmlns="http://www.w3.org/2000/svg">
<path d="M25 0C18.3696 0 12.0107 2.63793 7.32233 7.33348C2.63392 12.029 0 18.3976 0 25.0381C0.000884605 25.8931 0.0472466 26.7474 0.138889 27.5975C0.788864 33.7473 3.68831 39.4387 8.27859 43.575C12.8689 47.7114 18.8252 50 25 50C31.1748 50 37.1311 47.7114 41.7214 43.575C46.3117 39.4387 49.2111 33.7473 49.8611 27.5975C49.9528 26.7474 49.9991 25.8931 50 25.0381C50 18.3976 47.3661 12.029 42.6777 7.33348C37.9893 2.63793 31.6304 0 25 0ZM40.0556 37.3345C40.0278 37.3345 39.8889 37.5571 39.8611 37.5571C38.0426 39.7343 35.7694 41.4854 33.2016 42.687C30.6339 43.8886 27.8342 44.5113 25 44.5113C22.1658 44.5113 19.3661 43.8886 16.7984 42.687C14.2306 41.4854 11.9574 39.7343 10.1389 37.5571C10.1111 37.5571 9.97222 37.3345 9.94444 37.3345C9.79191 37.1129 9.70522 36.8524 9.69444 36.5834C9.69962 36.2915 9.79251 36.008 9.96098 35.7698C10.1295 35.5316 10.3657 35.3498 10.6389 35.248C12.6944 34.5525 14.6667 33.8848 15.2222 33.7457C15.2093 33.683 15.2101 33.6182 15.2245 33.5558C15.2388 33.4934 15.2665 33.4348 15.3056 33.3841C15.3784 33.1148 15.532 32.8744 15.7456 32.6953C15.9592 32.5162 16.2225 32.407 16.5 32.3826L20.0278 32.1044C19.998 31.3441 19.8187 30.5972 19.5 29.9066V29.8788C19.2023 29.0929 18.7803 28.3602 18.25 27.7088C16.7974 25.8109 16.0244 23.4788 16.0556 21.0876C15.9019 18.6287 16.7181 16.2075 18.3284 14.345C19.9388 12.4825 22.2147 11.3273 24.6667 11.128H25.3333C27.7853 11.3273 30.0612 12.4825 31.6716 14.345C33.2819 16.2075 34.0981 18.6287 33.9444 21.0876C33.9756 23.4788 33.2026 25.8109 31.75 27.7088C31.2197 28.3602 30.7977 29.0929 30.5 29.8788V29.9066C30.1813 30.5972 30.002 31.3441 29.9722 32.1044L33.5 32.3826C33.7775 32.407 34.0408 32.5162 34.2544 32.6953C34.468 32.8744 34.6216 33.1148 34.6944 33.3841C34.7335 33.4348 34.7612 33.4934 34.7755 33.5558C34.7899 33.6182 34.7907 33.683 34.7778 33.7457C35.3333 33.8848 37.3056 34.5525 39.3611 35.248C39.5648 35.3135 39.7502 35.4261 39.9023 35.5767C40.0544 35.7273 40.1689 35.9117 40.2365 36.115C40.3042 36.3182 40.323 36.5345 40.2916 36.7464C40.2601 36.9583 40.1793 37.1598 40.0556 37.3345Z" fill="#131313"/>
</svg>
