<svg width="42" height="50" viewBox="0 0 42 50" fill="none" xmlns="http://www.w3.org/2000/svg">
<path fill-rule="evenodd" clip-rule="evenodd" d="M26.8666 43.2094C28.2999 43.0657 29.2683 44.5871 28.5912 45.8187C28.1141 46.6867 27.4417 47.4441 26.6362 48.0646C25.8147 48.6971 24.8616 49.1826 23.8392 49.5086C22.8164 49.835 21.7303 50.0001 20.6402 50.0001C19.5502 50.0001 18.4641 49.835 17.4413 49.5086C16.4189 49.1826 15.4658 48.6971 14.6444 48.0646C13.8388 47.4441 13.1663 46.6867 12.6893 45.8187C12.0123 44.5871 12.9807 43.0657 14.4139 43.2094C14.861 43.2543 18.3595 43.5963 20.6402 43.5963C22.921 43.5963 26.4195 43.2543 26.8666 43.2094Z" fill="#131313"/>
<path fill-rule="evenodd" clip-rule="evenodd" d="M29.0515 1.71906C23.7133 -0.652089 17.5439 -0.56641 12.2792 1.952C7.04298 4.45677 3.73264 9.59455 3.73264 15.2167V18.1781C3.73264 20.8106 3.05024 23.4015 1.74711 25.7169L1.2192 26.6547C-2.02995 32.4277 1.52229 39.5683 8.23674 40.7611C16.4329 42.2174 24.8376 42.2174 33.0339 40.7611L33.4073 40.6949C40.0327 39.5176 43.7239 32.6502 40.8895 26.7749L40.2724 25.4956C39.2389 23.3536 38.7036 21.0208 38.7036 18.6595V17.9117C37.5815 18.5718 36.2738 18.9503 34.8777 18.9503C30.7042 18.9503 27.3209 15.567 27.3209 11.3935C27.3209 7.85624 29.7514 4.88662 33.0332 4.06334C31.9829 3.21967 30.8084 2.49947 29.5286 1.93098L29.0515 1.71906Z" fill="#131313"/>
<path d="M34.8774 17.207C38.0878 17.207 40.6904 14.6044 40.6904 11.394C40.6904 8.18361 38.0878 5.58105 34.8774 5.58105C31.667 5.58105 29.0645 8.18361 29.0645 11.394C29.0645 14.6044 31.667 17.207 34.8774 17.207Z" fill="#131313"/>
</svg>
