<svg width="79" height="85" viewBox="0 0 79 85" fill="none" xmlns="http://www.w3.org/2000/svg">
<g clip-path="url(#clip0_192_3338)">
<path d="M57.3872 0L47.2688 3.38648L55.9275 9.88927L57.3872 0Z" fill="url(#paint0_linear_192_3338)"/>
<path d="M78.2064 14.493L70.3819 8.59473L69.7864 19.3454L78.2064 14.493Z" fill="url(#paint1_linear_192_3338)"/>
<path d="M67.873 18.8879L68.4879 7.75049L58.562 11.8808L67.873 18.8879Z" fill="url(#paint2_linear_192_3338)"/>
<path d="M67.174 6.17516L59.3238 0.277344L57.8628 10.0893L67.174 6.17516Z" fill="url(#paint3_linear_192_3338)"/>
<path d="M68.9568 22.1413L58.2611 28.2135C57.8808 27.8098 57.489 27.4143 57.0857 27.0267L67.3657 20.9312L57.0377 13.1681L53.5324 24.0494C53.0248 23.6799 52.51 23.3276 51.9891 22.9903L55.4465 11.958L46.084 4.95166L48.7239 21.1255C34.4504 14.0007 16.6899 17.8361 6.7628 31.0449C-4.42047 45.9252 -1.42343 67.054 13.4568 78.2373C28.3372 89.4207 49.466 86.4235 60.6493 71.5433C70.042 59.0455 69.4279 42.1422 60.1756 30.4233L77.3023 28.3916L68.9568 22.1413ZM55.9432 68.0064C46.728 80.268 29.2553 82.7464 16.9938 73.5312C4.73214 64.3161 2.25376 46.8433 11.469 34.5818C20.6841 22.3201 38.1568 19.8418 50.4184 29.0569C62.68 38.2721 65.1584 55.7448 55.9432 68.0064Z" fill="url(#paint4_linear_192_3338)"/>
<path d="M70.7419 21.0556L78.436 26.853L78.8812 16.3623L70.7419 21.0556Z" fill="url(#paint5_linear_192_3338)"/>
<path d="M57.3872 0L47.2688 3.38648L55.9275 9.88927L57.3872 0Z" fill="url(#paint6_linear_192_3338)"/>
<path d="M78.2064 14.493L70.3819 8.59473L69.7864 19.3454L78.2064 14.493Z" fill="url(#paint7_linear_192_3338)"/>
<path d="M67.873 18.8879L68.4879 7.75049L58.562 11.8808L67.873 18.8879Z" fill="url(#paint8_linear_192_3338)"/>
<path d="M67.174 6.17516L59.3238 0.277344L57.8628 10.0893L67.174 6.17516Z" fill="url(#paint9_linear_192_3338)"/>
<path d="M68.9568 22.1413L58.2611 28.2135C57.8808 27.8098 57.489 27.4143 57.0857 27.0267L67.3657 20.9312L57.0377 13.1681L53.5324 24.0494C53.0248 23.6799 52.51 23.3276 51.9891 22.9903L55.4465 11.958L46.084 4.95166L48.7239 21.1255C34.4504 14.0007 16.6899 17.8361 6.7628 31.0449C-4.42047 45.9252 -1.42343 67.054 13.4568 78.2373C28.3372 89.4207 49.466 86.4235 60.6493 71.5433C70.042 59.0455 69.4279 42.1422 60.1756 30.4233L77.3023 28.3916L68.9568 22.1413ZM55.9432 68.0064C46.728 80.268 29.2553 82.7464 16.9938 73.5312C4.73214 64.3161 2.25376 46.8433 11.469 34.5818C20.6841 22.3201 38.1568 19.8418 50.4184 29.0569C62.68 38.2721 65.1584 55.7448 55.9432 68.0064Z" fill="url(#paint10_linear_192_3338)"/>
<path d="M70.7419 21.0556L78.436 26.853L78.8812 16.3623L70.7419 21.0556Z" fill="url(#paint11_linear_192_3338)"/>
</g>
<defs>
<linearGradient id="paint0_linear_192_3338" x1="45.5211" y1="2.2761" x2="68.636" y2="10.845" gradientUnits="userSpaceOnUse">
<stop stop-color="#DFC050"/>
<stop offset="0.515988" stop-color="#00A39B"/>
</linearGradient>
<linearGradient id="paint1_linear_192_3338" x1="68.332" y1="11.0691" x2="88.5802" y2="16.8149" gradientUnits="userSpaceOnUse">
<stop stop-color="#DFC050"/>
<stop offset="0.515988" stop-color="#00A39B"/>
</linearGradient>
<linearGradient id="paint2_linear_192_3338" x1="56.8475" y1="10.3139" x2="80.2036" y2="17.8555" gradientUnits="userSpaceOnUse">
<stop stop-color="#DFC050"/>
<stop offset="0.515988" stop-color="#00A39B"/>
</linearGradient>
<linearGradient id="paint3_linear_192_3338" x1="56.2545" y1="2.53565" x2="77.8909" y2="9.9748" gradientUnits="userSpaceOnUse">
<stop stop-color="#DFC050"/>
<stop offset="0.515988" stop-color="#00A39B"/>
</linearGradient>
<linearGradient id="paint4_linear_192_3338" x1="-13.3522" y1="23.3755" x2="165.602" y2="85.9888" gradientUnits="userSpaceOnUse">
<stop stop-color="#DFC050"/>
<stop offset="0.515988" stop-color="#00A39B"/>
</linearGradient>
<linearGradient id="paint5_linear_192_3338" x1="69.3361" y1="18.7768" x2="88.9363" y2="24.2865" gradientUnits="userSpaceOnUse">
<stop stop-color="#DFC050"/>
<stop offset="0.515988" stop-color="#00A39B"/>
</linearGradient>
<linearGradient id="paint6_linear_192_3338" x1="45.5211" y1="2.2761" x2="68.636" y2="10.845" gradientUnits="userSpaceOnUse">
<stop stop-color="#DFC050"/>
<stop offset="0.515988" stop-color="#00A39B"/>
</linearGradient>
<linearGradient id="paint7_linear_192_3338" x1="68.332" y1="11.0691" x2="88.5802" y2="16.8149" gradientUnits="userSpaceOnUse">
<stop stop-color="#DFC050"/>
<stop offset="0.515988" stop-color="#00A39B"/>
</linearGradient>
<linearGradient id="paint8_linear_192_3338" x1="56.8475" y1="10.3139" x2="80.2036" y2="17.8555" gradientUnits="userSpaceOnUse">
<stop stop-color="#DFC050"/>
<stop offset="0.515988" stop-color="#00A39B"/>
</linearGradient>
<linearGradient id="paint9_linear_192_3338" x1="56.2545" y1="2.53565" x2="77.8909" y2="9.9748" gradientUnits="userSpaceOnUse">
<stop stop-color="#DFC050"/>
<stop offset="0.515988" stop-color="#00A39B"/>
</linearGradient>
<linearGradient id="paint10_linear_192_3338" x1="-13.3522" y1="23.3755" x2="165.602" y2="85.9888" gradientUnits="userSpaceOnUse">
<stop stop-color="#DFC050"/>
<stop offset="0.515988" stop-color="#00A39B"/>
</linearGradient>
<linearGradient id="paint11_linear_192_3338" x1="69.3361" y1="18.7768" x2="88.9363" y2="24.2865" gradientUnits="userSpaceOnUse">
<stop stop-color="#DFC050"/>
<stop offset="0.515988" stop-color="#00A39B"/>
</linearGradient>
<clipPath id="clip0_192_3338">
<rect width="78.8813" height="85" fill="white"/>
</clipPath>
</defs>
</svg>
