<svg width="85" height="85" viewBox="0 0 85 85" fill="none" xmlns="http://www.w3.org/2000/svg">
<g clip-path="url(#clip0_192_3325)">
<path d="M36.3074 37.0513C40.1181 37.0513 43.843 35.9648 47.0114 33.9292C50.1799 31.8935 52.6493 29.0002 54.1076 25.6151C55.5658 22.23 55.9473 18.5052 55.2039 14.9115C54.4605 11.3178 52.6255 8.01691 49.931 5.42604C47.2365 2.83519 43.8035 1.07079 40.0662 0.355973C36.3288 -0.358842 32.455 0.00802663 28.9345 1.41019C25.4139 2.81236 22.4048 5.18683 20.2878 8.23336C18.1708 11.2799 17.0408 14.8616 17.0408 18.5256C17.0467 23.4371 19.0786 28.146 22.6905 31.6189C26.3024 35.0919 31.1994 37.0455 36.3074 37.0513ZM36.3074 6.53846C38.7731 6.53846 41.1835 7.24151 43.2335 8.55867C45.2837 9.87584 46.8815 11.748 47.825 13.9383C48.7687 16.1287 49.0156 18.539 48.5346 20.8642C48.0535 23.1895 46.8662 25.3254 45.1227 27.0019C43.3792 28.6783 41.1578 29.82 38.7396 30.2826C36.3213 30.745 33.8147 30.5076 31.5367 29.6004C29.2587 28.6931 27.3117 27.1567 25.9418 25.1853C24.5719 23.2142 23.8408 20.8964 23.8408 18.5256C23.8443 15.3475 25.1589 12.3005 27.4961 10.0533C29.8333 7.80597 33.0022 6.54193 36.3074 6.53846ZM7.93331 68.741C7.93331 75.554 10.9842 78.4615 18.1334 78.4615H49.8666C50.7684 78.4615 51.6332 78.806 52.2707 79.4191C52.9084 80.0322 53.2666 80.8638 53.2666 81.7308C53.2666 82.5978 52.9084 83.4295 52.2707 84.0424C51.6332 84.6556 50.7684 85 49.8666 85H18.1334C7.17171 85 1.1333 79.2244 1.1333 68.741C1.1333 57.1375 7.96051 43.5898 27.2 43.5898H45.3334C51.4092 43.3544 57.3823 45.1487 62.2382 48.6679C62.5984 48.9325 62.9 49.2635 63.1252 49.6418C63.3505 50.0199 63.4946 50.4377 63.5495 50.8702C63.6044 51.3029 63.5689 51.7416 63.4448 52.1609C63.3209 52.58 63.1109 52.9712 62.8274 53.3112C62.5438 53.6512 62.1924 53.9333 61.7939 54.1409C61.3955 54.3485 60.9577 54.4773 60.5067 54.5198C60.0555 54.5625 59.6001 54.5179 59.1673 54.3887C58.7343 54.2596 58.3327 54.0486 57.9858 53.7679C54.3272 51.1953 49.8601 49.9104 45.3334 50.1283H27.2C24.6112 49.9364 22.0099 50.287 19.5756 51.1558C17.1414 52.0246 14.9322 53.3908 13.1005 55.1604C11.2688 56.9299 9.85825 59.0605 8.96614 61.4051C8.07405 63.7498 7.72166 66.2528 7.93331 68.741ZM85 73.0129C85 73.8799 84.6418 74.7114 84.0041 75.3245C83.3664 75.9377 82.5016 76.2821 81.6 76.2821H75.9334V81.7308C75.9334 82.5978 75.5752 83.4295 74.9375 84.0424C74.2998 84.6556 73.435 85 72.5334 85C71.6315 85 70.7667 84.6556 70.1292 84.0424C69.4915 83.4295 69.1334 82.5978 69.1334 81.7308V76.2821H63.4666C62.5649 76.2821 61.7001 75.9377 61.0624 75.3245C60.4248 74.7114 60.0666 73.8799 60.0666 73.0129C60.0666 72.1457 60.4248 71.3142 61.0624 70.7012C61.7001 70.0881 62.5649 69.7436 63.4666 69.7436H69.1334V64.2948C69.1334 63.4278 69.4915 62.5963 70.1292 61.9831C70.7667 61.3702 71.6315 61.0256 72.5334 61.0256C73.435 61.0256 74.2998 61.3702 74.9375 61.9831C75.5752 62.5963 75.9334 63.4278 75.9334 64.2948V69.7436H81.6C82.5016 69.7436 83.3664 70.0881 84.0041 70.7012C84.6418 71.3142 85 72.1457 85 73.0129Z" fill="url(#paint0_linear_192_3325)"/>
</g>
<defs>
<linearGradient id="paint0_linear_192_3325" x1="-13.3528" y1="19.5635" x2="179.873" y2="88.6383" gradientUnits="userSpaceOnUse">
<stop stop-color="#DFC050"/>
<stop offset="0.515988" stop-color="#00A39B"/>
</linearGradient>
<clipPath id="clip0_192_3325">
<rect width="85" height="85" fill="white"/>
</clipPath>
</defs>
</svg>
