<svg width="85" height="85" viewBox="0 0 85 85" fill="none" xmlns="http://www.w3.org/2000/svg">
<g clip-path="url(#clip0_192_3327)">
<mask id="mask0_192_3327" style="mask-type:luminance" maskUnits="userSpaceOnUse" x="0" y="0" width="85" height="85">
<path d="M85 0H0V85H85V0Z" fill="white"/>
</mask>
<g mask="url(#mask0_192_3327)">
<path d="M23.4692 19.344C22.2433 18.1171 20.2545 18.1171 19.0287 19.344C14.4771 23.8954 12.24 30.236 12.8902 36.7408C13.0524 38.3612 14.4175 39.5691 16.0118 39.5691C16.1165 39.5691 16.2221 39.5638 16.3269 39.5533C18.0531 39.3808 19.3124 37.8407 19.1396 36.1157C18.677 31.4931 20.2556 26.9981 23.4692 23.7843C24.696 22.5587 24.696 20.5697 23.4692 19.344Z" fill="url(#paint0_linear_192_3327)"/>
<path fill-rule="evenodd" clip-rule="evenodd" d="M0 35.9052C0 16.107 16.107 0 35.9052 0C55.7032 0 71.8104 16.107 71.8104 35.9052C71.8104 44.6763 68.649 52.7229 63.4061 58.9654L84.0802 79.6394C85.3069 80.8652 85.3069 82.8542 84.0802 84.08C83.4667 84.6934 82.6639 85 81.8598 85C81.0558 85 80.2531 84.6934 79.6395 84.08L58.9654 63.4061C52.7229 68.649 44.6763 71.8104 35.9052 71.8104C16.107 71.8104 0 55.7034 0 35.9052ZM57.1517 56.5299C57.0359 56.6173 56.9248 56.7137 56.8192 56.8192C56.7135 56.925 56.6168 57.0362 56.5294 57.1522C51.192 62.3346 43.9148 65.5295 35.9052 65.5295C19.5699 65.5295 6.28086 52.2405 6.28086 35.9052C6.28086 19.5699 19.5699 6.28086 35.9052 6.28086C52.2395 6.28086 65.5295 19.5699 65.5295 35.9052C65.5295 43.9151 62.3344 51.1925 57.1517 56.5299Z" fill="url(#paint1_linear_192_3327)"/>
</g>
</g>
<defs>
<linearGradient id="paint0_linear_192_3327" x1="10.7742" y1="23.2906" x2="39.7926" y2="29.0632" gradientUnits="userSpaceOnUse">
<stop stop-color="#DFC050"/>
<stop offset="0.515988" stop-color="#00A39B"/>
</linearGradient>
<linearGradient id="paint1_linear_192_3327" x1="-14.6819" y1="19.5635" x2="180.553" y2="90.3001" gradientUnits="userSpaceOnUse">
<stop stop-color="#DFC050"/>
<stop offset="0.515988" stop-color="#00A39B"/>
</linearGradient>
<clipPath id="clip0_192_3327">
<rect width="85" height="85" fill="white"/>
</clipPath>
</defs>
</svg>
