<svg width="85" height="85" viewBox="0 0 85 85" fill="none" xmlns="http://www.w3.org/2000/svg">
<path d="M81.1613 60.6641C81.0153 60.5429 64.4986 48.7752 60.0389 49.5107C57.8875 49.8907 56.6589 51.359 54.1936 54.2954C53.7969 54.7692 52.841 55.9015 52.1027 56.7085C50.5446 56.2008 49.0246 55.5822 47.5548 54.8574C39.9673 51.1635 33.8367 45.033 30.1428 37.4453C29.418 35.9756 28.7994 34.4556 28.2917 32.8975C29.1016 32.1564 30.2365 31.2006 30.7213 30.7929C33.6441 28.3413 35.1095 27.1099 35.4895 24.9558C36.2691 20.4961 24.4573 3.98488 24.3361 3.83613C23.7982 3.07325 23.0976 2.43933 22.2849 1.9801C21.4722 1.52089 20.5677 1.24784 19.6367 1.18066C14.8491 1.18066 1.18066 18.9095 1.18066 21.8982C1.18066 22.0718 1.43134 39.7124 23.1846 61.8404C45.2878 83.569 62.9284 83.8195 63.1019 83.8195C66.0879 83.8195 83.8195 70.1511 83.8195 65.3635C83.7517 64.4323 83.478 63.5278 83.0183 62.7152C82.5587 61.9026 81.9245 61.202 81.1613 60.6641ZM62.7962 78.2938C60.4052 78.0899 45.5853 76.137 27.0742 57.9536C8.80273 39.3516 6.89927 24.5069 6.70921 22.2068C10.3199 16.5395 14.6805 11.3866 19.6724 6.88826C19.7826 6.99844 19.9287 7.16372 20.116 7.37858C23.9445 12.6047 27.2425 18.1996 29.961 24.0798C29.077 24.9693 28.1425 25.8072 27.1623 26.5894C25.6422 27.7476 24.2465 29.0604 22.9973 30.5065C22.7859 30.803 22.6355 31.1386 22.5547 31.4937C22.4738 31.8487 22.4642 32.2164 22.5262 32.5751C23.1092 35.1004 24.0021 37.544 25.1845 39.8502C29.4208 48.5493 36.4503 55.5778 45.1501 59.8129C47.4558 60.9971 49.8994 61.8908 52.4251 62.4739C52.7839 62.536 53.1516 62.5264 53.5065 62.4455C53.8616 62.3648 54.1972 62.2143 54.4938 62.0029C55.9451 60.7487 57.2624 59.3473 58.4245 57.8214C59.2897 56.7911 60.4438 55.4165 60.8817 55.0282C66.7771 57.7441 72.3844 61.0462 77.619 64.8842C77.8475 65.0771 78.01 65.2258 78.1175 65.3221C73.6189 70.3157 68.4649 74.6773 62.7962 78.2883V78.2938Z" fill="url(#paint0_linear_192_3334)"/>
<path d="M45.2546 23.2178C49.6367 23.2222 53.8381 24.9648 56.9368 28.0634C60.0353 31.1621 61.778 35.3635 61.7824 39.7455C61.7824 40.4761 62.0727 41.1767 62.5893 41.6933C63.1059 42.2099 63.8065 42.5002 64.537 42.5002C65.2676 42.5002 65.9682 42.2099 66.4848 41.6933C67.0014 41.1767 67.2917 40.4761 67.2917 39.7455C67.2851 33.9029 64.9613 28.3015 60.8299 24.1702C56.6986 20.0389 51.0973 17.7151 45.2546 17.7085C44.5241 17.7085 43.8235 17.9988 43.3069 18.5154C42.7903 19.032 42.5 19.7326 42.5 20.4631C42.5 21.1937 42.7903 21.8943 43.3069 22.4109C43.8235 22.9275 44.5241 23.2178 45.2546 23.2178Z" fill="url(#paint1_linear_192_3334)"/>
<path d="M45.2546 9.44432C53.2881 9.45379 60.9897 12.6492 66.6702 18.3297C72.3506 24.0102 75.5461 31.7118 75.5556 39.7452C75.5556 40.4758 75.8458 41.1764 76.3624 41.693C76.8789 42.2096 77.5797 42.4999 78.3102 42.4999C79.0407 42.4999 79.7415 42.2096 80.2579 41.693C80.7746 41.1764 81.0648 40.4758 81.0648 39.7452C81.054 30.2512 77.2776 21.149 70.5642 14.4357C63.8509 7.72236 54.7487 3.946 45.2546 3.93506C44.5241 3.93506 43.8235 4.22527 43.3069 4.74187C42.7903 5.25846 42.5 5.95911 42.5 6.68969C42.5 7.42026 42.7903 8.12092 43.3069 8.63751C43.8235 9.15411 44.5241 9.44432 45.2546 9.44432Z" fill="url(#paint2_linear_192_3334)"/>
<defs>
<linearGradient id="paint0_linear_192_3334" x1="-13.0933" y1="20.2007" x2="176.718" y2="88.9721" gradientUnits="userSpaceOnUse">
<stop stop-color="#DFC050"/>
<stop offset="0.515988" stop-color="#00A39B"/>
</linearGradient>
<linearGradient id="paint1_linear_192_3334" x1="38.2178" y1="23.4145" x2="95.1612" y2="44.0459" gradientUnits="userSpaceOnUse">
<stop stop-color="#DFC050"/>
<stop offset="0.515988" stop-color="#00A39B"/>
</linearGradient>
<linearGradient id="paint2_linear_192_3334" x1="35.8388" y1="12.8111" x2="124.417" y2="44.9044" gradientUnits="userSpaceOnUse">
<stop stop-color="#DFC050"/>
<stop offset="0.515988" stop-color="#00A39B"/>
</linearGradient>
</defs>
</svg>
