<svg width="30" height="30" viewBox="0 0 30 30" fill="none" xmlns="http://www.w3.org/2000/svg">
<path fill-rule="evenodd" clip-rule="evenodd" d="M6.14514 14.9993C6.14514 14.025 6.30696 13.0909 6.59578 12.2147L1.54038 8.35425C0.555111 10.3547 0 12.6088 0 14.9993C0 17.3877 0.554428 19.6405 1.53833 21.6396L6.591 17.7716C6.30491 16.8996 6.14514 15.9689 6.14514 14.9993Z" fill="#FBBC05"/>
<path fill-rule="evenodd" clip-rule="evenodd" d="M15.0231 6.13642C17.1397 6.13642 19.0515 6.88643 20.5537 8.11372L24.9236 3.75004C22.2607 1.43183 18.8467 0 15.0231 0C9.08686 0 3.98503 3.39481 1.54199 8.35508L6.59739 12.2156C7.76224 8.67963 11.0827 6.13642 15.0231 6.13642Z" fill="#EB4335"/>
<path fill-rule="evenodd" clip-rule="evenodd" d="M15.0231 23.8633C11.0827 23.8633 7.76224 21.3201 6.59739 17.7842L1.54199 21.644C3.98503 26.6049 9.08686 29.9998 15.0231 29.9998C18.6869 29.9998 22.1849 28.6988 24.8102 26.2613L20.0116 22.5515C18.6576 23.4045 16.9526 23.8633 15.0231 23.8633Z" fill="#34A853"/>
<path fill-rule="evenodd" clip-rule="evenodd" d="M29.3611 15.0002C29.3611 14.1139 29.2246 13.1593 29.0197 12.2729H15.0225V18.0685H23.0794C22.6766 20.0444 21.58 21.5635 20.0109 22.5521L24.8096 26.262C27.5674 23.7024 29.3611 19.8896 29.3611 15.0002Z" fill="#4285F4"/>
</svg>
